<?xml version="1.0" standalone="no"?>
<!DOCTYPE svg PUBLIC "-//W3C//DTD SVG 20010904//EN"
 "http://www.w3.org/TR/2001/REC-SVG-20010904/DTD/svg10.dtd">
<svg version="1.0" xmlns="http://www.w3.org/2000/svg"
 width="200.000000pt" height="200.000000pt" viewBox="0 0 200.000000 200.000000"
 preserveAspectRatio="xMidYMid meet">
<metadata>
Created by potrace 1.11, written by Peter Selinger 2001-2013
</metadata>
<g transform="translate(0.000000,200.000000) scale(0.100000,-0.100000)"
fill="#000000" stroke="none">
<path d="M0 1000 l0 -1000 1000 0 1000 0 0 1000 0 1000 -1000 0 -1000 0 0
-1000z m1051 604 c39 -64 206 -351 357 -614 52 -91 142 -245 199 -344 57 -98
102 -184 99 -192 -8 -21 -1404 -21 -1412 0 -3 8 42 94 99 192 57 99 147 253
199 344 377 656 394 683 412 677 6 -2 27 -30 47 -63z"/>
<path d="M951 1413 c-22 -37 -141 -243 -265 -458 -167 -289 -222 -393 -214
-402 15 -19 1041 -19 1056 0 8 9 -56 128 -252 467 -144 249 -267 455 -273 457
-6 2 -30 -26 -52 -64z m79 -173 c17 -34 20 -59 20 -197 l1 -158 140 -80 c118
-67 144 -86 160 -117 10 -21 19 -40 19 -43 0 -3 -18 -5 -39 -5 -32 0 -70 17
-185 84 l-146 85 -145 -84 c-121 -70 -153 -85 -185 -83 -22 1 -38 4 -37 7 32
71 42 80 178 157 l138 79 1 154 c0 136 3 160 21 198 11 24 25 43 30 43 5 0 18
-18 29 -40z"/>
</g>
</svg>
